# Blender v2.83.0 OBJ File: ''
# www.blender.org
mtllib sphere.mtl
o Sphere
v 0.000000 0.866025 -0.500000
v 0.000000 0.500000 -0.866025
v 0.000000 -0.258819 -0.965926
v 0.000000 -0.500000 -0.866026
v 0.000000 -0.965926 -0.258819
v 0.066987 0.965926 -0.250000
v 0.129409 0.866025 -0.482963
v 0.183013 0.707107 -0.683013
v 0.224144 0.500000 -0.836516
v 0.250000 0.258819 -0.933013
v 0.258819 0.000000 -0.965926
v 0.250000 -0.258819 -0.933013
v 0.224144 -0.500000 -0.836516
v 0.183013 -0.707107 -0.683013
v 0.129409 -0.866025 -0.482963
v 0.066987 -0.965926 -0.250000
v 0.129409 0.965926 -0.224144
v 0.250000 0.866025 -0.433013
v 0.353553 0.707107 -0.612372
v 0.433013 0.500000 -0.750000
v 0.482963 0.258819 -0.836516
v 0.500000 0.000000 -0.866025
v 0.482963 -0.258819 -0.836516
v 0.433013 -0.500000 -0.750000
v 0.353553 -0.707107 -0.612373
v 0.250000 -0.866025 -0.433013
v 0.129409 -0.965926 -0.224144
v 0.183012 0.965926 -0.183013
v 0.353553 0.866025 -0.353553
v 0.500000 0.707107 -0.500000
v 0.612372 0.500000 -0.612373
v 0.683012 0.258819 -0.683013
v 0.707106 0.000000 -0.707107
v 0.683012 -0.258819 -0.683013
v 0.612372 -0.500000 -0.612373
v 0.500000 -0.707107 -0.500000
v 0.353553 -0.866025 -0.353554
v 0.183013 -0.965926 -0.183013
v 0.224144 0.965926 -0.129410
v 0.433012 0.866025 -0.250000
v 0.612372 0.707107 -0.353553
v 0.750000 0.500000 -0.433013
v 0.836516 0.258819 -0.482963
v 0.866025 0.000000 -0.500000
v 0.836516 -0.258819 -0.482963
v 0.750000 -0.500000 -0.433013
v 0.612372 -0.707107 -0.353554
v 0.433013 -0.866025 -0.250000
v 0.224144 -0.965926 -0.129410
v -0.000000 1.000000 -0.000000
v 0.250000 0.965926 -0.066988
v 0.482963 0.866025 -0.129410
v 0.683012 0.707107 -0.183013
v 0.836516 0.500000 -0.224144
v 0.933012 0.258819 -0.250000
v 0.965925 0.000000 -0.258819
v 0.933012 -0.258819 -0.250000
v 0.836516 -0.500000 -0.224144
v 0.683012 -0.707107 -0.183013
v 0.482963 -0.866025 -0.129410
v 0.250000 -0.965926 -0.066988
v 0.258819 0.965926 -0.000000
v 0.500000 0.866025 -0.000000
v 0.707106 0.707107 -0.000000
v 0.866025 0.500000 -0.000000
v 0.965925 0.258819 -0.000000
v 0.999999 0.000000 -0.000000
v 0.965925 -0.258819 -0.000000
v 0.866025 -0.500000 -0.000000
v 0.707106 -0.707107 -0.000000
v 0.500000 -0.866025 -0.000000
v 0.258819 -0.965926 -0.000000
v 0.250000 0.965926 0.066987
v 0.482962 0.866025 0.129409
v 0.683012 0.707107 0.183012
v 0.836516 0.500000 0.224143
v 0.933012 0.258819 0.249999
v 0.965925 0.000000 0.258819
v 0.933012 -0.258819 0.249999
v 0.836516 -0.500000 0.224143
v 0.683012 -0.707107 0.183012
v 0.482963 -0.866025 0.129409
v 0.250000 -0.965926 0.066987
v 0.224144 0.965926 0.129409
v 0.433012 0.866025 0.249999
v 0.612372 0.707107 0.353553
v 0.750000 0.500000 0.433012
v 0.836516 0.258819 0.482962
v 0.866025 0.000000 0.499999
v 0.836516 -0.258819 0.482962
v 0.750000 -0.500000 0.433012
v 0.612372 -0.707107 0.353553
v 0.433013 -0.866025 0.249999
v 0.224144 -0.965926 0.129409
v 0.183012 0.965926 0.183012
v 0.353553 0.866025 0.353553
v 0.499999 0.707107 0.499999
v 0.612372 0.500000 0.612372
v 0.683012 0.258819 0.683012
v 0.707106 0.000000 0.707106
v 0.683012 -0.258819 0.683012
v 0.612372 -0.500000 0.612372
v 0.500000 -0.707107 0.499999
v 0.353553 -0.866025 0.353553
v 0.183013 -0.965926 0.183012
v 0.129409 0.965926 0.224143
v 0.250000 0.866025 0.433012
v 0.353553 0.707107 0.612372
v 0.433012 0.500000 0.749999
v 0.482963 0.258819 0.836515
v 0.500000 0.000000 0.866024
v 0.482963 -0.258819 0.836515
v 0.433012 -0.500000 0.749999
v 0.353553 -0.707107 0.612372
v 0.250000 -0.866025 0.433012
v 0.129409 -0.965926 0.224143
v 0.066987 0.965926 0.249999
v 0.129409 0.866025 0.482962
v 0.183012 0.707107 0.683012
v 0.224144 0.500000 0.836515
v 0.250000 0.258819 0.933012
v 0.258819 0.000000 0.965925
v 0.250000 -0.258819 0.933012
v 0.224144 -0.500000 0.836515
v 0.183013 -0.707107 0.683012
v 0.129409 -0.866025 0.482962
v 0.066987 -0.965926 0.249999
v 0.000000 0.965926 0.258818
v -0.000000 0.866025 0.499999
v -0.000000 0.707107 0.707106
v -0.000000 0.500000 0.866024
v -0.000000 0.258819 0.965925
v -0.000000 0.000000 0.999999
v -0.000000 -0.258819 0.965925
v -0.000000 -0.500000 0.866024
v -0.000000 -0.707107 0.707106
v -0.000000 -0.866025 0.499999
v -0.000000 -0.965926 0.258819
v -0.066987 0.965926 0.249999
v -0.129410 0.866025 0.482962
v -0.183013 0.707107 0.683012
v -0.224144 0.500000 0.836515
v -0.250000 0.258819 0.933012
v -0.258819 0.000000 0.965925
v -0.250000 -0.258819 0.933012
v -0.224144 -0.500000 0.836515
v -0.183013 -0.707107 0.683012
v -0.129410 -0.866025 0.482962
v -0.066987 -0.965926 0.249999
v -0.129409 0.965926 0.224143
v -0.250000 0.866025 0.433012
v -0.353553 0.707107 0.612372
v -0.433012 0.500000 0.749999
v -0.482963 0.258819 0.836515
v -0.500000 0.000000 0.866024
v -0.482963 -0.258819 0.836515
v -0.433012 -0.500000 0.749999
v -0.353553 -0.707107 0.612372
v -0.250000 -0.866025 0.433012
v -0.129409 -0.965926 0.224143
v 0.000000 -1.000000 -0.000000
v -0.183012 0.965926 0.183012
v -0.353553 0.866025 0.353553
v -0.500000 0.707107 0.499999
v -0.612372 0.500000 0.612372
v -0.683012 0.258819 0.683012
v -0.707106 0.000000 0.707106
v -0.683012 -0.258819 0.683012
v -0.612372 -0.500000 0.612372
v -0.500000 -0.707107 0.499999
v -0.353553 -0.866025 0.353553
v -0.183013 -0.965926 0.183012
v -0.224143 0.965926 0.129409
v -0.433012 0.866025 0.249999
v -0.612372 0.707107 0.353553
v -0.750000 0.500000 0.433012
v -0.836516 0.258819 0.482962
v -0.866025 0.000000 0.499999
v -0.836516 -0.258819 0.482962
v -0.750000 -0.500000 0.433012
v -0.612372 -0.707107 0.353553
v -0.433013 -0.866025 0.250000
v -0.224144 -0.965926 0.129409
v -0.250000 0.965926 0.066987
v -0.482963 0.866025 0.129409
v -0.683012 0.707107 0.183012
v -0.836516 0.500000 0.224143
v -0.933012 0.258819 0.249999
v -0.965925 0.000000 0.258819
v -0.933012 -0.258819 0.250000
v -0.836516 -0.500000 0.224143
v -0.683012 -0.707107 0.183012
v -0.482963 -0.866025 0.129409
v -0.250000 -0.965926 0.066987
v -0.258819 0.965926 -0.000000
v -0.500000 0.866025 -0.000000
v -0.707106 0.707107 -0.000000
v -0.866025 0.500000 -0.000000
v -0.965925 0.258819 -0.000000
v -0.999999 0.000000 -0.000000
v -0.965925 -0.258819 -0.000000
v -0.866025 -0.500000 -0.000000
v -0.707106 -0.707107 -0.000000
v -0.500000 -0.866025 -0.000000
v -0.258819 -0.965926 -0.000000
v -0.250000 0.965926 -0.066988
v -0.482962 0.866025 -0.129410
v -0.683012 0.707107 -0.183013
v -0.836516 0.500000 -0.224144
v -0.933012 0.258819 -0.250000
v -0.965925 0.000000 -0.258819
v -0.933012 -0.258819 -0.250000
v -0.836516 -0.500000 -0.224144
v -0.683012 -0.707107 -0.183013
v -0.482963 -0.866025 -0.129410
v -0.250000 -0.965926 -0.066988
v -0.224143 0.965926 -0.129410
v -0.433012 0.866025 -0.250000
v -0.612372 0.707107 -0.353554
v -0.750000 0.500000 -0.433013
v -0.836516 0.258819 -0.482963
v -0.866025 0.000000 -0.500000
v -0.836516 -0.258819 -0.482963
v -0.750000 -0.500000 -0.433013
v -0.612372 -0.707107 -0.353554
v -0.433012 -0.866025 -0.250000
v -0.224144 -0.965926 -0.129410
v -0.183012 0.965926 -0.183013
v -0.353553 0.866025 -0.353554
v -0.500000 0.707107 -0.500000
v -0.612372 0.500000 -0.612373
v -0.683012 0.258819 -0.683013
v -0.707106 0.000000 -0.707107
v -0.683012 -0.258819 -0.683013
v -0.612372 -0.500000 -0.612373
v -0.500000 -0.707107 -0.500000
v -0.353553 -0.866025 -0.353554
v -0.183013 -0.965926 -0.183013
v -0.129409 0.965926 -0.224144
v -0.250000 0.866025 -0.433013
v -0.353553 0.707107 -0.612372
v -0.433012 0.500000 -0.750000
v -0.482963 0.258819 -0.836516
v -0.500000 0.000000 -0.866025
v -0.482963 -0.258819 -0.836516
v -0.433012 -0.500000 -0.750000
v -0.353553 -0.707107 -0.612372
v -0.250000 -0.866025 -0.433013
v -0.129409 -0.965926 -0.224144
v -0.066987 0.965926 -0.250000
v -0.129409 0.866025 -0.482963
v -0.183012 0.707107 -0.683013
v -0.224144 0.500000 -0.836516
v -0.250000 0.258819 -0.933012
v -0.258819 0.000000 -0.965926
v -0.250000 -0.258819 -0.933013
v -0.224144 -0.500000 -0.836516
v -0.183012 -0.707107 -0.683013
v -0.129409 -0.866025 -0.482963
v -0.066987 -0.965926 -0.250000
v 0.000000 0.965926 -0.258819
v 0.000000 0.707107 -0.707107
v -0.000000 0.258819 -0.965926
v -0.000000 0.000000 -1.000000
v 0.000000 -0.707107 -0.707107
v -0.000000 -0.866025 -0.500000
vt 0.750000 0.750000
vt 0.750000 0.833333
vt 0.708333 0.833333
vt 0.708333 0.750000
vt 0.750000 0.166667
vt 0.750000 0.250000
vt 0.708333 0.250000
vt 0.708333 0.166667
vt 0.750000 0.416667
vt 0.750000 0.500000
vt 0.708333 0.500000
vt 0.708333 0.416667
vt 0.750000 0.666667
vt 0.708333 0.666667
vt 0.750000 0.083333
vt 0.708333 0.083333
vt 0.750000 0.916667
vt 0.729167 1.000000
vt 0.708333 0.916667
vt 0.750000 0.333333
vt 0.708333 0.333333
vt 0.750000 0.583333
vt 0.708333 0.583333
vt 0.729167 0.000000
vt 0.687500 1.000000
vt 0.666667 0.916667
vt 0.666667 0.416667
vt 0.666667 0.333333
vt 0.666667 0.666667
vt 0.666667 0.583333
vt 0.687500 0.000000
vt 0.666667 0.083333
vt 0.666667 0.833333
vt 0.666667 0.250000
vt 0.666667 0.500000
vt 0.666667 0.750000
vt 0.666667 0.166667
vt 0.625000 0.250000
vt 0.625000 0.166667
vt 0.625000 0.500000
vt 0.625000 0.416667
vt 0.625000 0.750000
vt 0.625000 0.666667
vt 0.625000 0.083333
vt 0.645834 1.000000
vt 0.625000 0.916667
vt 0.625000 0.333333
vt 0.625000 0.583333
vt 0.645834 0.000000
vt 0.625000 0.833333
vt 0.583334 0.916667
vt 0.583333 0.833333
vt 0.583333 0.333333
vt 0.583333 0.250000
vt 0.583333 0.583333
vt 0.583333 0.500000
vt 0.583333 0.750000
vt 0.583333 0.166667
vt 0.583333 0.416667
vt 0.583333 0.666667
vt 0.583334 0.083333
vt 0.604167 1.000000
vt 0.604167 0.000000
vt 0.541667 0.166667
vt 0.541667 0.083333
vt 0.562500 1.000000
vt 0.541667 0.916667
vt 0.541667 0.416667
vt 0.541667 0.333333
vt 0.541667 0.666667
vt 0.541667 0.583333
vt 0.562500 0.000000
vt 0.541667 0.833333
vt 0.541667 0.250000
vt 0.541667 0.500000
vt 0.541667 0.750000
vt 0.500000 0.833333
vt 0.500000 0.750000
vt 0.500000 0.250000
vt 0.500000 0.166667
vt 0.500000 0.500000
vt 0.500000 0.416667
vt 0.500000 0.666667
vt 0.500000 0.083333
vt 0.520834 1.000000
vt 0.500000 0.916667
vt 0.500000 0.333333
vt 0.500000 0.583333
vt 0.520834 0.000000
vt 0.479167 0.000000
vt 0.458334 0.083333
vt 0.458334 0.916667
vt 0.458333 0.833333
vt 0.458333 0.333333
vt 0.458333 0.250000
vt 0.458333 0.583333
vt 0.458333 0.500000
vt 0.458333 0.750000
vt 0.458333 0.166667
vt 0.458333 0.416667
vt 0.458333 0.666667
vt 0.479167 1.000000
vt 0.416667 0.750000
vt 0.416667 0.666667
vt 0.416667 0.166667
vt 0.416667 0.083333
vt 0.437500 1.000000
vt 0.416667 0.916667
vt 0.416667 0.416667
vt 0.416667 0.333333
vt 0.416667 0.583333
vt 0.437500 0.000000
vt 0.416667 0.833333
vt 0.416667 0.250000
vt 0.416667 0.500000
vt 0.375000 0.833333
vt 0.375000 0.750000
vt 0.375000 0.250000
vt 0.375000 0.166667
vt 0.375000 0.500000
vt 0.375000 0.416667
vt 0.375000 0.666667
vt 0.375000 0.083333
vt 0.395834 1.000000
vt 0.375000 0.916667
vt 0.375000 0.333333
vt 0.375000 0.583333
vt 0.395834 0.000000
vt 0.333333 0.666667
vt 0.333333 0.583333
vt 0.354167 0.000000
vt 0.333333 0.083333
vt 0.333333 0.916667
vt 0.333333 0.833333
vt 0.333333 0.333333
vt 0.333333 0.250000
vt 0.333333 0.500000
vt 0.333333 0.750000
vt 0.333333 0.166667
vt 0.333333 0.416667
vt 0.354167 1.000000
vt 0.291667 0.750000
vt 0.291667 0.666667
vt 0.291667 0.166667
vt 0.291667 0.083333
vt 0.312500 1.000000
vt 0.291667 0.916667
vt 0.291667 0.416667
vt 0.291667 0.333333
vt 0.291667 0.583333
vt 0.312500 0.000000
vt 0.291667 0.833334
vt 0.291667 0.250000
vt 0.291667 0.500000
vt 0.250000 0.583333
vt 0.250000 0.500000
vt 0.250000 0.833334
vt 0.250000 0.750000
vt 0.250000 0.250000
vt 0.250000 0.166667
vt 0.250000 0.416667
vt 0.250000 0.666667
vt 0.250000 0.083333
vt 0.270833 1.000000
vt 0.250000 0.916667
vt 0.250000 0.333333
vt 0.270833 0.000000
vt 0.208333 0.666667
vt 0.208333 0.583333
vt 0.229167 0.000000
vt 0.208333 0.083333
vt 0.208333 0.916667
vt 0.208333 0.833334
vt 0.208333 0.333333
vt 0.208333 0.250000
vt 0.208333 0.500000
vt 0.208333 0.750000
vt 0.208333 0.166667
vt 0.208333 0.416667
vt 0.229167 1.000000
vt 0.166667 0.500000
vt 0.166667 0.416667
vt 0.166667 0.750000
vt 0.166667 0.666667
vt 0.166667 0.166667
vt 0.166667 0.083333
vt 0.187500 1.000000
vt 0.166667 0.916667
vt 0.166667 0.333333
vt 0.166667 0.583333
vt 0.187500 0.000000
vt 0.166667 0.833333
vt 0.166667 0.250000
vt 0.125000 0.583333
vt 0.125000 0.500000
vt 0.125000 0.833333
vt 0.125000 0.750000
vt 0.125000 0.250000
vt 0.125000 0.166667
vt 0.125000 0.416667
vt 0.125000 0.666667
vt 0.125000 0.083333
vt 0.145833 1.000000
vt 0.125000 0.916667
vt 0.125000 0.333333
vt 0.145833 0.000000
vt 0.083333 0.416667
vt 0.083333 0.333333
vt 0.083333 0.666667
vt 0.083333 0.583333
vt 0.104166 0.000000
vt 0.083333 0.083333
vt 0.083333 0.916667
vt 0.083333 0.833333
vt 0.083333 0.250000
vt 0.083333 0.500000
vt 0.083333 0.750000
vt 0.083333 0.166667
vt 0.104166 1.000000
vt 0.041667 0.500000
vt 0.041667 0.416667
vt 0.041667 0.750000
vt 0.041667 0.666667
vt 0.041667 0.166667
vt 0.041666 0.083333
vt 0.062500 1.000000
vt 0.041666 0.916667
vt 0.041667 0.333333
vt 0.041667 0.583333
vt 0.062500 0.000000
vt 0.041667 0.833333
vt 0.041667 0.250000
vt 0.000000 0.333333
vt 0.000000 0.250000
vt 0.000000 0.583333
vt 0.000000 0.500000
vt 0.000000 0.833333
vt 0.000000 0.750000
vt 0.000000 0.166667
vt 0.000000 0.416667
vt 0.000000 0.666667
vt 0.000000 0.083333
vt 0.020833 1.000000
vt 0.000000 0.916667
vt 0.020833 0.000000
vt 1.000000 0.916667
vt 0.979166 1.000000
vt 0.958333 0.916667
vt 1.000000 0.333333
vt 1.000000 0.416667
vt 0.958333 0.416667
vt 0.958333 0.333333
vt 1.000000 0.583333
vt 1.000000 0.666667
vt 0.958333 0.666667
vt 0.958333 0.583333
vt 0.979166 0.000000
vt 1.000000 0.083333
vt 0.958333 0.083333
vt 1.000000 0.833333
vt 0.958333 0.833333
vt 1.000000 0.250000
vt 0.958333 0.250000
vt 1.000000 0.500000
vt 0.958333 0.500000
vt 1.000000 0.750000
vt 0.958333 0.750000
vt 1.000000 0.166667
vt 0.958333 0.166667
vt 0.916667 0.250000
vt 0.916667 0.166667
vt 0.916667 0.500000
vt 0.916667 0.416667
vt 0.916667 0.750000
vt 0.916667 0.666667
vt 0.916666 0.083333
vt 0.937500 1.000000
vt 0.916666 0.916667
vt 0.916667 0.333333
vt 0.916667 0.583333
vt 0.937500 0.000000
vt 0.916667 0.833333
vt 0.875000 0.916667
vt 0.875000 0.833333
vt 0.875000 0.333333
vt 0.875000 0.250000
vt 0.875000 0.583333
vt 0.875000 0.500000
vt 0.875000 0.750000
vt 0.875000 0.166667
vt 0.875000 0.416667
vt 0.875000 0.666667
vt 0.875000 0.083333
vt 0.895833 1.000000
vt 0.895833 0.000000
vt 0.833333 0.166667
vt 0.833333 0.083333
vt 0.854167 1.000000
vt 0.833333 0.916667
vt 0.833333 0.416667
vt 0.833333 0.333333
vt 0.833333 0.666667
vt 0.833333 0.583333
vt 0.854166 0.000000
vt 0.833333 0.833333
vt 0.833333 0.250000
vt 0.833333 0.500000
vt 0.833333 0.750000
vt 0.791667 0.833333
vt 0.791667 0.750000
vt 0.791667 0.250000
vt 0.791667 0.166667
vt 0.791667 0.500000
vt 0.791667 0.416667
vt 0.791667 0.666667
vt 0.791667 0.083333
vt 0.812500 1.000000
vt 0.791667 0.916667
vt 0.791667 0.333333
vt 0.791667 0.583333
vt 0.812500 0.000000
vt 0.770833 0.000000
vt 0.770833 1.000000
vn 0.0000 0.7017 -0.7125
vn 0.0000 0.8613 -0.5080
vn 0.1315 0.8613 -0.4907
vn 0.1844 0.7017 -0.6882
vn 0.0000 -0.8613 -0.5080
vn 0.0000 -0.7017 -0.7125
vn 0.1844 -0.7017 -0.6882
vn 0.1315 -0.8613 -0.4907
vn 0.0000 -0.2561 -0.9666
vn 0.0000 0.0000 -1.0000
vn 0.2588 0.0000 -0.9659
vn 0.2502 -0.2561 -0.9337
vn 0.0000 0.4953 -0.8687
vn 0.2248 0.4953 -0.8391
vn 0.0000 -0.9632 -0.2689
vn 0.0696 -0.9632 -0.2597
vn 0.0000 0.9632 -0.2689
vn 0.0000 1.0000 0.0000
vn 0.0696 0.9632 -0.2597
vn 0.0000 -0.4953 -0.8687
vn 0.2248 -0.4953 -0.8391
vn 0.0000 0.2561 -0.9666
vn 0.2502 0.2561 -0.9337
vn 0.0000 -1.0000 0.0000
vn 0.1344 0.9632 -0.2329
vn 0.4833 -0.2561 -0.8371
vn 0.4343 -0.4953 -0.7523
vn 0.4343 0.4953 -0.7523
vn 0.4833 0.2561 -0.8371
vn 0.1344 -0.9632 -0.2329
vn 0.2540 0.8613 -0.4400
vn 0.3562 -0.7017 -0.6170
vn 0.5000 0.0000 -0.8660
vn 0.3562 0.7017 -0.6170
vn 0.2540 -0.8613 -0.4400
vn 0.5038 -0.7017 -0.5038
vn 0.3592 -0.8613 -0.3592
vn 0.7071 0.0000 -0.7071
vn 0.6835 -0.2561 -0.6835
vn 0.5038 0.7017 -0.5038
vn 0.6142 0.4953 -0.6142
vn 0.1901 -0.9632 -0.1901
vn 0.1901 0.9632 -0.1901
vn 0.6142 -0.4953 -0.6142
vn 0.6835 0.2561 -0.6835
vn 0.3592 0.8613 -0.3592
vn 0.2329 0.9632 -0.1344
vn 0.4400 0.8613 -0.2540
vn 0.7523 -0.4953 -0.4343
vn 0.6170 -0.7017 -0.3562
vn 0.8371 0.2561 -0.4833
vn 0.8660 0.0000 -0.5000
vn 0.6170 0.7017 -0.3562
vn 0.4400 -0.8613 -0.2540
vn 0.8371 -0.2561 -0.4833
vn 0.7523 0.4953 -0.4343
vn 0.2329 -0.9632 -0.1344
vn 0.4907 -0.8613 -0.1315
vn 0.2597 -0.9632 -0.0696
vn 0.2597 0.9632 -0.0696
vn 0.9337 -0.2561 -0.2502
vn 0.8391 -0.4953 -0.2248
vn 0.8391 0.4953 -0.2248
vn 0.9337 0.2561 -0.2502
vn 0.4907 0.8613 -0.1315
vn 0.6882 -0.7017 -0.1844
vn 0.9659 0.0000 -0.2588
vn 0.6882 0.7017 -0.1844
vn 0.5080 0.8613 0.0000
vn 0.7125 0.7017 0.0000
vn 0.7125 -0.7017 0.0000
vn 0.5080 -0.8613 0.0000
vn 1.0000 0.0000 0.0000
vn 0.9666 -0.2561 0.0000
vn 0.8687 0.4953 0.0000
vn 0.2689 -0.9632 0.0000
vn 0.2689 0.9632 0.0000
vn 0.8687 -0.4953 0.0000
vn 0.9666 0.2561 0.0000
vn 0.2597 -0.9632 0.0696
vn 0.2597 0.9632 0.0696
vn 0.4907 0.8613 0.1315
vn 0.8391 -0.4953 0.2248
vn 0.6882 -0.7017 0.1844
vn 0.9337 0.2561 0.2502
vn 0.9659 0.0000 0.2588
vn 0.6882 0.7017 0.1844
vn 0.4907 -0.8613 0.1315
vn 0.9337 -0.2561 0.2502
vn 0.8391 0.4953 0.2248
vn 0.6170 0.7017 0.3562
vn 0.7523 0.4953 0.4343
vn 0.4400 -0.8613 0.2540
vn 0.2329 -0.9632 0.1344
vn 0.2329 0.9632 0.1344
vn 0.8371 -0.2561 0.4833
vn 0.7523 -0.4953 0.4343
vn 0.8371 0.2561 0.4833
vn 0.4400 0.8613 0.2540
vn 0.6170 -0.7017 0.3562
vn 0.8660 0.0000 0.5000
vn 0.3592 0.8613 0.3592
vn 0.5038 0.7017 0.5038
vn 0.5038 -0.7017 0.5038
vn 0.3592 -0.8613 0.3592
vn 0.7071 0.0000 0.7071
vn 0.6835 -0.2561 0.6835
vn 0.6142 0.4953 0.6142
vn 0.1901 -0.9632 0.1901
vn 0.1901 0.9632 0.1901
vn 0.6142 -0.4953 0.6142
vn 0.6835 0.2561 0.6835
vn 0.4343 0.4953 0.7523
vn 0.4833 0.2561 0.8371
vn 0.1344 -0.9632 0.2329
vn 0.1344 0.9632 0.2329
vn 0.2540 0.8613 0.4400
vn 0.4343 -0.4953 0.7523
vn 0.3562 -0.7017 0.6170
vn 0.5000 0.0000 0.8660
vn 0.3562 0.7017 0.6170
vn 0.2540 -0.8613 0.4400
vn 0.4833 -0.2561 0.8371
vn 0.1844 0.7017 0.6882
vn 0.2248 0.4953 0.8391
vn 0.1315 -0.8613 0.4907
vn 0.0696 -0.9632 0.2597
vn 0.0696 0.9632 0.2597
vn 0.2502 -0.2561 0.9337
vn 0.2248 -0.4953 0.8391
vn 0.2502 0.2561 0.9337
vn 0.1315 0.8613 0.4907
vn 0.1844 -0.7017 0.6882
vn 0.2588 0.0000 0.9659
vn 0.0000 0.2561 0.9666
vn 0.0000 0.0000 1.0000
vn 0.0000 0.8613 0.5080
vn 0.0000 0.7017 0.7125
vn 0.0000 -0.7017 0.7125
vn 0.0000 -0.8613 0.5080
vn 0.0000 -0.2561 0.9666
vn 0.0000 0.4953 0.8687
vn 0.0000 -0.9632 0.2689
vn 0.0000 0.9632 0.2689
vn 0.0000 -0.4953 0.8687
vn -0.2248 0.4953 0.8391
vn -0.2502 0.2561 0.9337
vn -0.0696 -0.9632 0.2597
vn -0.0696 0.9632 0.2597
vn -0.1315 0.8613 0.4907
vn -0.2248 -0.4953 0.8391
vn -0.1844 -0.7017 0.6882
vn -0.2588 0.0000 0.9659
vn -0.1844 0.7017 0.6882
vn -0.1315 -0.8613 0.4907
vn -0.2502 -0.2561 0.9337
vn -0.5000 0.0000 0.8660
vn -0.4833 -0.2561 0.8371
vn -0.3562 0.7017 0.6170
vn -0.4343 0.4953 0.7523
vn -0.2540 -0.8613 0.4400
vn -0.1344 -0.9632 0.2329
vn -0.1344 0.9632 0.2329
vn -0.4343 -0.4953 0.7523
vn -0.4833 0.2561 0.8371
vn -0.2540 0.8613 0.4400
vn -0.3562 -0.7017 0.6170
vn -0.6835 0.2561 0.6835
vn -0.7071 0.0000 0.7071
vn -0.3592 0.8613 0.3592
vn -0.5038 0.7017 0.5038
vn -0.5038 -0.7017 0.5038
vn -0.3592 -0.8613 0.3592
vn -0.6835 -0.2561 0.6835
vn -0.6142 0.4953 0.6142
vn -0.1901 -0.9632 0.1901
vn -0.1901 0.9632 0.1901
vn -0.6142 -0.4953 0.6142
vn -0.8371 -0.2561 0.4833
vn -0.7523 -0.4953 0.4343
vn -0.7523 0.4953 0.4343
vn -0.8371 0.2561 0.4833
vn -0.2329 -0.9632 0.1344
vn -0.2329 0.9632 0.1344
vn -0.4400 0.8613 0.2540
vn -0.6170 -0.7017 0.3562
vn -0.8660 0.0000 0.5000
vn -0.6170 0.7017 0.3562
vn -0.4400 -0.8613 0.2540
vn -0.9659 0.0000 0.2588
vn -0.9337 -0.2561 0.2502
vn -0.6882 0.7017 0.1844
vn -0.8391 0.4953 0.2248
vn -0.4907 -0.8613 0.1315
vn -0.2597 -0.9632 0.0696
vn -0.2597 0.9632 0.0696
vn -0.8391 -0.4953 0.2248
vn -0.9337 0.2561 0.2502
vn -0.4907 0.8613 0.1315
vn -0.6882 -0.7017 0.1844
vn -0.8687 -0.4953 0.0000
vn -0.7125 -0.7017 0.0000
vn -0.9666 0.2561 0.0000
vn -1.0000 0.0000 0.0000
vn -0.5080 0.8613 0.0000
vn -0.7125 0.7017 0.0000
vn -0.5080 -0.8613 0.0000
vn -0.9666 -0.2561 0.0000
vn -0.8687 0.4953 0.0000
vn -0.2689 -0.9632 0.0000
vn -0.2689 0.9632 0.0000
vn -0.2597 0.9632 -0.0696
vn -0.9337 -0.2561 -0.2502
vn -0.8391 -0.4953 -0.2248
vn -0.8391 0.4953 -0.2248
vn -0.9337 0.2561 -0.2502
vn -0.2597 -0.9632 -0.0696
vn -0.4907 0.8613 -0.1315
vn -0.6882 -0.7017 -0.1844
vn -0.9659 0.0000 -0.2588
vn -0.6882 0.7017 -0.1844
vn -0.4907 -0.8613 -0.1315
vn -0.6170 -0.7017 -0.3562
vn -0.4400 -0.8613 -0.2540
vn -0.8660 0.0000 -0.5000
vn -0.8371 -0.2561 -0.4833
vn -0.6170 0.7017 -0.3562
vn -0.7523 0.4953 -0.4343
vn -0.2329 -0.9632 -0.1344
vn -0.2329 0.9632 -0.1344
vn -0.7523 -0.4953 -0.4343
vn -0.8371 0.2561 -0.4833
vn -0.4400 0.8613 -0.2540
vn -0.1901 0.9632 -0.1901
vn -0.3592 0.8613 -0.3592
vn -0.6142 -0.4953 -0.6142
vn -0.5038 -0.7017 -0.5038
vn -0.6835 0.2561 -0.6835
vn -0.7071 0.0000 -0.7071
vn -0.5038 0.7017 -0.5038
vn -0.3592 -0.8613 -0.3592
vn -0.6835 -0.2561 -0.6835
vn -0.6142 0.4953 -0.6142
vn -0.1901 -0.9632 -0.1901
vn -0.2540 -0.8613 -0.4400
vn -0.1344 -0.9632 -0.2329
vn -0.1344 0.9632 -0.2329
vn -0.4833 -0.2561 -0.8371
vn -0.4343 -0.4953 -0.7523
vn -0.4343 0.4953 -0.7523
vn -0.4833 0.2561 -0.8371
vn -0.2540 0.8613 -0.4400
vn -0.3562 -0.7017 -0.6170
vn -0.5000 0.0000 -0.8660
vn -0.3562 0.7017 -0.6170
vn -0.1315 0.8613 -0.4907
vn -0.1844 0.7017 -0.6882
vn -0.1844 -0.7017 -0.6882
vn -0.1315 -0.8613 -0.4907
vn -0.2588 0.0000 -0.9659
vn -0.2502 -0.2561 -0.9337
vn -0.2248 0.4953 -0.8391
vn -0.0696 -0.9632 -0.2597
vn -0.0696 0.9632 -0.2597
vn -0.2248 -0.4953 -0.8391
vn -0.2502 0.2561 -0.9337
usemtl None
s 1
f 262/1/1 1/2/2 7/3/3 8/4/4
f 266/5/5 265/6/6 14/7/7 15/8/8
f 3/9/9 264/10/10 11/11/11 12/12/12
f 2/13/13 262/1/1 8/4/4 9/14/14
f 5/15/15 266/5/5 15/8/8 16/16/16
f 261/17/17 50/18/18 6/19/19
f 4/20/20 3/9/9 12/12/12 13/21/21
f 263/22/22 2/13/13 9/14/14 10/23/23
f 161/24/24 5/15/15 16/16/16
f 1/2/2 261/17/17 6/19/19 7/3/3
f 265/6/6 4/20/20 13/21/21 14/7/7
f 264/10/10 263/22/22 10/23/23 11/11/11
f 6/19/19 50/25/18 17/26/25
f 13/21/21 12/12/12 23/27/26 24/28/27
f 10/23/23 9/14/14 20/29/28 21/30/29
f 161/31/24 16/16/16 27/32/30
f 7/3/3 6/19/19 17/26/25 18/33/31
f 14/7/7 13/21/21 24/28/27 25/34/32
f 11/11/11 10/23/23 21/30/29 22/35/33
f 8/4/4 7/3/3 18/33/31 19/36/34
f 15/8/8 14/7/7 25/34/32 26/37/35
f 12/12/12 11/11/11 22/35/33 23/27/26
f 9/14/14 8/4/4 19/36/34 20/29/28
f 16/16/16 15/8/8 26/37/35 27/32/30
f 26/37/35 25/34/32 36/38/36 37/39/37
f 23/27/26 22/35/33 33/40/38 34/41/39
f 20/29/28 19/36/34 30/42/40 31/43/41
f 27/32/30 26/37/35 37/39/37 38/44/42
f 17/26/25 50/45/18 28/46/43
f 24/28/27 23/27/26 34/41/39 35/47/44
f 21/30/29 20/29/28 31/43/41 32/48/45
f 161/49/24 27/32/30 38/44/42
f 18/33/31 17/26/25 28/46/43 29/50/46
f 25/34/32 24/28/27 35/47/44 36/38/36
f 22/35/33 21/30/29 32/48/45 33/40/38
f 19/36/34 18/33/31 29/50/46 30/42/40
f 29/50/46 28/46/43 39/51/47 40/52/48
f 36/38/36 35/47/44 46/53/49 47/54/50
f 33/40/38 32/48/45 43/55/51 44/56/52
f 30/42/40 29/50/46 40/52/48 41/57/53
f 37/39/37 36/38/36 47/54/50 48/58/54
f 34/41/39 33/40/38 44/56/52 45/59/55
f 31/43/41 30/42/40 41/57/53 42/60/56
f 38/44/42 37/39/37 48/58/54 49/61/57
f 28/46/43 50/62/18 39/51/47
f 35/47/44 34/41/39 45/59/55 46/53/49
f 32/48/45 31/43/41 42/60/56 43/55/51
f 161/63/24 38/44/42 49/61/57
f 49/61/57 48/58/54 60/64/58 61/65/59
f 39/51/47 50/66/18 51/67/60
f 46/53/49 45/59/55 57/68/61 58/69/62
f 43/55/51 42/60/56 54/70/63 55/71/64
f 161/72/24 49/61/57 61/65/59
f 40/52/48 39/51/47 51/67/60 52/73/65
f 47/54/50 46/53/49 58/69/62 59/74/66
f 44/56/52 43/55/51 55/71/64 56/75/67
f 41/57/53 40/52/48 52/73/65 53/76/68
f 48/58/54 47/54/50 59/74/66 60/64/58
f 45/59/55 44/56/52 56/75/67 57/68/61
f 42/60/56 41/57/53 53/76/68 54/70/63
f 53/76/68 52/73/65 63/77/69 64/78/70
f 60/64/58 59/74/66 70/79/71 71/80/72
f 57/68/61 56/75/67 67/81/73 68/82/74
f 54/70/63 53/76/68 64/78/70 65/83/75
f 61/65/59 60/64/58 71/80/72 72/84/76
f 51/67/60 50/85/18 62/86/77
f 58/69/62 57/68/61 68/82/74 69/87/78
f 55/71/64 54/70/63 65/83/75 66/88/79
f 161/89/24 61/65/59 72/84/76
f 52/73/65 51/67/60 62/86/77 63/77/69
f 59/74/66 58/69/62 69/87/78 70/79/71
f 56/75/67 55/71/64 66/88/79 67/81/73
f 161/90/24 72/84/76 83/91/80
f 63/77/69 62/86/77 73/92/81 74/93/82
f 70/79/71 69/87/78 80/94/83 81/95/84
f 67/81/73 66/88/79 77/96/85 78/97/86
f 64/78/70 63/77/69 74/93/82 75/98/87
f 71/80/72 70/79/71 81/95/84 82/99/88
f 68/82/74 67/81/73 78/97/86 79/100/89
f 65/83/75 64/78/70 75/98/87 76/101/90
f 72/84/76 71/80/72 82/99/88 83/91/80
f 62/86/77 50/102/18 73/92/81
f 69/87/78 68/82/74 79/100/89 80/94/83
f 66/88/79 65/83/75 76/101/90 77/96/85
f 76/101/90 75/98/87 86/103/91 87/104/92
f 83/91/80 82/99/88 93/105/93 94/106/94
f 73/92/81 50/107/18 84/108/95
f 80/94/83 79/100/89 90/109/96 91/110/97
f 77/96/85 76/101/90 87/104/92 88/111/98
f 161/112/24 83/91/80 94/106/94
f 74/93/82 73/92/81 84/108/95 85/113/99
f 81/95/84 80/94/83 91/110/97 92/114/100
f 78/97/86 77/96/85 88/111/98 89/115/101
f 75/98/87 74/93/82 85/113/99 86/103/91
f 82/99/88 81/95/84 92/114/100 93/105/93
f 79/100/89 78/97/86 89/115/101 90/109/96
f 86/103/91 85/113/99 96/116/102 97/117/103
f 93/105/93 92/114/100 103/118/104 104/119/105
f 90/109/96 89/115/101 100/120/106 101/121/107
f 87/104/92 86/103/91 97/117/103 98/122/108
f 94/106/94 93/105/93 104/119/105 105/123/109
f 84/108/95 50/124/18 95/125/110
f 91/110/97 90/109/96 101/121/107 102/126/111
f 88/111/98 87/104/92 98/122/108 99/127/112
f 161/128/24 94/106/94 105/123/109
f 85/113/99 84/108/95 95/125/110 96/116/102
f 92/114/100 91/110/97 102/126/111 103/118/104
f 89/115/101 88/111/98 99/127/112 100/120/106
f 99/127/112 98/122/108 109/129/113 110/130/114
f 161/131/24 105/123/109 116/132/115
f 96/116/102 95/125/110 106/133/116 107/134/117
f 103/118/104 102/126/111 113/135/118 114/136/119
f 100/120/106 99/127/112 110/130/114 111/137/120
f 97/117/103 96/116/102 107/134/117 108/138/121
f 104/119/105 103/118/104 114/136/119 115/139/122
f 101/121/107 100/120/106 111/137/120 112/140/123
f 98/122/108 97/117/103 108/138/121 109/129/113
f 105/123/109 104/119/105 115/139/122 116/132/115
f 95/125/110 50/141/18 106/133/116
f 102/126/111 101/121/107 112/140/123 113/135/118
f 109/129/113 108/138/121 119/142/124 120/143/125
f 116/132/115 115/139/122 126/144/126 127/145/127
f 106/133/116 50/146/18 117/147/128
f 113/135/118 112/140/123 123/148/129 124/149/130
f 110/130/114 109/129/113 120/143/125 121/150/131
f 161/151/24 116/132/115 127/145/127
f 107/134/117 106/133/116 117/147/128 118/152/132
f 114/136/119 113/135/118 124/149/130 125/153/133
f 111/137/120 110/130/114 121/150/131 122/154/134
f 108/138/121 107/134/117 118/152/132 119/142/124
f 115/139/122 114/136/119 125/153/133 126/144/126
f 112/140/123 111/137/120 122/154/134 123/148/129
f 122/154/134 121/150/131 132/155/135 133/156/136
f 119/142/124 118/152/132 129/157/137 130/158/138
f 126/144/126 125/153/133 136/159/139 137/160/140
f 123/148/129 122/154/134 133/156/136 134/161/141
f 120/143/125 119/142/124 130/158/138 131/162/142
f 127/145/127 126/144/126 137/160/140 138/163/143
f 117/147/128 50/164/18 128/165/144
f 124/149/130 123/148/129 134/161/141 135/166/145
f 121/150/131 120/143/125 131/162/142 132/155/135
f 161/167/24 127/145/127 138/163/143
f 118/152/132 117/147/128 128/165/144 129/157/137
f 125/153/133 124/149/130 135/166/145 136/159/139
f 132/155/135 131/162/142 142/168/146 143/169/147
f 161/170/24 138/163/143 149/171/148
f 129/157/137 128/165/144 139/172/149 140/173/150
f 136/159/139 135/166/145 146/174/151 147/175/152
f 133/156/136 132/155/135 143/169/147 144/176/153
f 130/158/138 129/157/137 140/173/150 141/177/154
f 137/160/140 136/159/139 147/175/152 148/178/155
f 134/161/141 133/156/136 144/176/153 145/179/156
f 131/162/142 130/158/138 141/177/154 142/168/146
f 138/163/143 137/160/140 148/178/155 149/171/148
f 128/165/144 50/180/18 139/172/149
f 135/166/145 134/161/141 145/179/156 146/174/151
f 145/179/156 144/176/153 155/181/157 156/182/158
f 142/168/146 141/177/154 152/183/159 153/184/160
f 149/171/148 148/178/155 159/185/161 160/186/162
f 139/172/149 50/187/18 150/188/163
f 146/174/151 145/179/156 156/182/158 157/189/164
f 143/169/147 142/168/146 153/184/160 154/190/165
f 161/191/24 149/171/148 160/186/162
f 140/173/150 139/172/149 150/188/163 151/192/166
f 147/175/152 146/174/151 157/189/164 158/193/167
f 144/176/153 143/169/147 154/190/165 155/181/157
f 141/177/154 140/173/150 151/192/166 152/183/159
f 148/178/155 147/175/152 158/193/167 159/185/161
f 155/181/157 154/190/165 166/194/168 167/195/169
f 152/183/159 151/192/166 163/196/170 164/197/171
f 159/185/161 158/193/167 170/198/172 171/199/173
f 156/182/158 155/181/157 167/195/169 168/200/174
f 153/184/160 152/183/159 164/197/171 165/201/175
f 160/186/162 159/185/161 171/199/173 172/202/176
f 150/188/163 50/203/18 162/204/177
f 157/189/164 156/182/158 168/200/174 169/205/178
f 154/190/165 153/184/160 165/201/175 166/194/168
f 161/206/24 160/186/162 172/202/176
f 151/192/166 150/188/163 162/204/177 163/196/170
f 158/193/167 157/189/164 169/205/178 170/198/172
f 169/205/178 168/200/174 179/207/179 180/208/180
f 166/194/168 165/201/175 176/209/181 177/210/182
f 161/211/24 172/202/176 183/212/183
f 163/196/170 162/204/177 173/213/184 174/214/185
f 170/198/172 169/205/178 180/208/180 181/215/186
f 167/195/169 166/194/168 177/210/182 178/216/187
f 164/197/171 163/196/170 174/214/185 175/217/188
f 171/199/173 170/198/172 181/215/186 182/218/189
f 168/200/174 167/195/169 178/216/187 179/207/179
f 165/201/175 164/197/171 175/217/188 176/209/181
f 172/202/176 171/199/173 182/218/189 183/212/183
f 162/204/177 50/219/18 173/213/184
f 179/207/179 178/216/187 189/220/190 190/221/191
f 176/209/181 175/217/188 186/222/192 187/223/193
f 183/212/183 182/218/189 193/224/194 194/225/195
f 173/213/184 50/226/18 184/227/196
f 180/208/180 179/207/179 190/221/191 191/228/197
f 177/210/182 176/209/181 187/223/193 188/229/198
f 161/230/24 183/212/183 194/225/195
f 174/214/185 173/213/184 184/227/196 185/231/199
f 181/215/186 180/208/180 191/228/197 192/232/200
f 178/216/187 177/210/182 188/229/198 189/220/190
f 175/217/188 174/214/185 185/231/199 186/222/192
f 182/218/189 181/215/186 192/232/200 193/224/194
f 192/232/200 191/228/197 202/233/201 203/234/202
f 189/220/190 188/229/198 199/235/203 200/236/204
f 186/222/192 185/231/199 196/237/205 197/238/206
f 193/224/194 192/232/200 203/234/202 204/239/207
f 190/221/191 189/220/190 200/236/204 201/240/208
f 187/223/193 186/222/192 197/238/206 198/241/209
f 194/225/195 193/224/194 204/239/207 205/242/210
f 184/227/196 50/243/18 195/244/211
f 191/228/197 190/221/191 201/240/208 202/233/201
f 188/229/198 187/223/193 198/241/209 199/235/203
f 161/245/24 194/225/195 205/242/210
f 185/231/199 184/227/196 195/244/211 196/237/205
f 195/246/211 50/247/18 206/248/212
f 202/249/201 201/250/208 212/251/213 213/252/214
f 199/253/203 198/254/209 209/255/215 210/256/216
f 161/257/24 205/258/210 216/259/217
f 196/260/205 195/246/211 206/248/212 207/261/218
f 203/262/202 202/249/201 213/252/214 214/263/219
f 200/264/204 199/253/203 210/256/216 211/265/220
f 197/266/206 196/260/205 207/261/218 208/267/221
f 204/268/207 203/262/202 214/263/219 215/269/222
f 201/250/208 200/264/204 211/265/220 212/251/213
f 198/254/209 197/266/206 208/267/221 209/255/215
f 205/258/210 204/268/207 215/269/222 216/259/217
f 215/269/222 214/263/219 225/270/223 226/271/224
f 212/251/213 211/265/220 222/272/225 223/273/226
f 209/255/215 208/267/221 219/274/227 220/275/228
f 216/259/217 215/269/222 226/271/224 227/276/229
f 206/248/212 50/277/18 217/278/230
f 213/252/214 212/251/213 223/273/226 224/279/231
f 210/256/216 209/255/215 220/275/228 221/280/232
f 161/281/24 216/259/217 227/276/229
f 207/261/218 206/248/212 217/278/230 218/282/233
f 214/263/219 213/252/214 224/279/231 225/270/223
f 211/265/220 210/256/216 221/280/232 222/272/225
f 208/267/221 207/261/218 218/282/233 219/274/227
f 218/282/233 217/278/230 228/283/234 229/284/235
f 225/270/223 224/279/231 235/285/236 236/286/237
f 222/272/225 221/280/232 232/287/238 233/288/239
f 219/274/227 218/282/233 229/284/235 230/289/240
f 226/271/224 225/270/223 236/286/237 237/290/241
f 223/273/226 222/272/225 233/288/239 234/291/242
f 220/275/228 219/274/227 230/289/240 231/292/243
f 227/276/229 226/271/224 237/290/241 238/293/244
f 217/278/230 50/294/18 228/283/234
f 224/279/231 223/273/226 234/291/242 235/285/236
f 221/280/232 220/275/228 231/292/243 232/287/238
f 161/295/24 227/276/229 238/293/244
f 238/293/244 237/290/241 248/296/245 249/297/246
f 228/283/234 50/298/18 239/299/247
f 235/285/236 234/291/242 245/300/248 246/301/249
f 232/287/238 231/292/243 242/302/250 243/303/251
f 161/304/24 238/293/244 249/297/246
f 229/284/235 228/283/234 239/299/247 240/305/252
f 236/286/237 235/285/236 246/301/249 247/306/253
f 233/288/239 232/287/238 243/303/251 244/307/254
f 230/289/240 229/284/235 240/305/252 241/308/255
f 237/290/241 236/286/237 247/306/253 248/296/245
f 234/291/242 233/288/239 244/307/254 245/300/248
f 231/292/243 230/289/240 241/308/255 242/302/250
f 241/308/255 240/305/252 251/309/256 252/310/257
f 248/296/245 247/306/253 258/311/258 259/312/259
f 245/300/248 244/307/254 255/313/260 256/314/261
f 242/302/250 241/308/255 252/310/257 253/315/262
f 249/297/246 248/296/245 259/312/259 260/316/263
f 239/299/247 50/317/18 250/318/264
f 246/301/249 245/300/248 256/314/261 257/319/265
f 243/303/251 242/302/250 253/315/262 254/320/266
f 161/321/24 249/297/246 260/316/263
f 240/305/252 239/299/247 250/318/264 251/309/256
f 247/306/253 246/301/249 257/319/265 258/311/258
f 244/307/254 243/303/251 254/320/266 255/313/260
f 161/322/24 260/316/263 5/15/15
f 251/309/256 250/318/264 261/17/17 1/2/2
f 258/311/258 257/319/265 4/20/20 265/6/6
f 255/313/260 254/320/266 263/22/22 264/10/10
f 252/310/257 251/309/256 1/2/2 262/1/1
f 259/312/259 258/311/258 265/6/6 266/5/5
f 256/314/261 255/313/260 264/10/10 3/9/9
f 253/315/262 252/310/257 262/1/1 2/13/13
f 260/316/263 259/312/259 266/5/5 5/15/15
f 250/318/264 50/323/18 261/17/17
f 257/319/265 256/314/261 3/9/9 4/20/20
f 254/320/266 253/315/262 2/13/13 263/22/22
