# Blender v2.83.0 OBJ File: ''
# www.blender.org
mtllib grass_blade.mtl
o Plane
v -0.000000 5.510307 1.000000
v 0.000000 0.000000 1.000000
v -0.000000 5.510307 -1.000000
v 0.000000 0.000000 -1.000000
v -0.000000 9.669852 0.874212
v -0.000000 9.669852 -0.874212
v -0.000000 13.689163 0.633256
v -0.000000 13.689163 -0.633256
v -0.000000 16.300737 0.000000
vt 0.000000 0.000000
vt 1.000000 0.000000
vt 1.000000 1.000000
vt 0.000000 1.000000
vt 0.000000 1.000000
vt 0.000000 0.000000
vt 0.000000 1.000000
vt 0.000000 0.000000
vt 0.000000 0.000000
vn 1.0000 0.0000 0.0000
usemtl None
s off
f 1/1/1 2/2/1 4/3/1 3/4/1
f 1/1/1 3/4/1 6/5/1 5/6/1
f 5/6/1 6/5/1 8/7/1 9/8/1 7/9/1
