# Blender v2.83.0 OBJ File: ''
# www.blender.org
mtllib grass_blade2.mtl
o Plane.001
v 0.000000 0.359507 0.051769
v 0.000000 -0.000000 0.051769
v 0.000000 0.000000 -0.051769
v 0.000000 0.359507 -0.051769
v 0.000000 0.643833 -0.045257
v 0.000000 0.643833 0.045257
v 0.000000 0.892528 -0.031025
v 0.000000 1.000000 0.000000
v 0.000000 0.892528 0.031026
vt 1.000000 0.000000
vt 0.000000 1.000000
vt 0.000000 0.000000
vt 0.000000 0.000000
vt 0.000000 0.000000
vt 0.000000 1.000000
vt 0.000000 0.000000
vt 1.000000 1.000000
vt 0.000000 1.000000
vn 1.0000 0.0000 0.0000
usemtl None
s 1
f 2/1/1 4/2/1 1/3/1
f 4/2/1 6/4/1 1/3/1
f 9/5/1 7/6/1 8/7/1
f 6/4/1 7/6/1 9/5/1
f 2/1/1 3/8/1 4/2/1
f 4/2/1 5/9/1 6/4/1
f 6/4/1 5/9/1 7/6/1
